<svg width="30" height="30" viewBox="0 0 30 30" fill="none" xmlns="http://www.w3.org/2000/svg"><mask id="a" style="mask-type:luminance" maskUnits="userSpaceOnUse" x="0" y="0" width="30" height="30"><path d="M30 30H0V0h30z" fill="#fff"/></mask><g mask="url(#a)" transform="rotate(180, 15, 15)"><path d="M17.5 11.25v-5a3.75 3.75 0 0 0-3.75-3.75l-5 11.25V27.5h14.1a2.5 2.5 0 0 0 2.5-2.13l1.72-11.25a2.5 2.5 0 0 0-2.5-2.87" fill="#1E1E1E"/><path d="m8.75 13.75 5-11.25a3.75 3.75 0 0 1 3.75 3.75v5h7.075a2.5 2.5 0 0 1 2.5 2.874l-1.725 11.25a2.5 2.5 0 0 1-2.5 2.126H8.75m0-13.75V27.5m0-13.75H5.413a2.89 2.89 0 0 0-2.913 2.5V25a2.887 2.887 0 0 0 2.913 2.5H8.75" stroke="#1E1E1E" stroke-width="4" stroke-linecap="round" stroke-linejoin="round"/></g></svg>